<?xml version="1.0" standalone="no"?>
<!DOCTYPE svg PUBLIC "-//W3C//DTD SVG 20010904//EN"
 "http://www.w3.org/TR/2001/REC-SVG-20010904/DTD/svg10.dtd">
<svg version="1.0" xmlns="http://www.w3.org/2000/svg"
 width="800.000000pt" height="800.000000pt" viewBox="0 0 800.000000 800.000000"
 preserveAspectRatio="xMidYMid meet">
<metadata>
Created by potrace 1.14, written by Peter Selinger 2001-2017
</metadata>
<g transform="translate(0.000000,800.000000) scale(0.100000,-0.100000)"
fill="#000000" stroke="none">
<path d="M5685 4999 c-27 -5 -72 -11 -99 -15 -48 -6 -53 -9 -113 -76 -48 -54
-247 -80 -363 -48 -25 7 -56 14 -68 16 -32 6 -82 25 -180 69 -99 44 -141 50
-337 50 -229 0 -317 -16 -509 -92 -86 -34 -90 -35 -150 -23 -33 6 -100 25
-148 41 -109 37 -118 39 -199 46 -62 5 -73 2 -175 -40 -96 -40 -166 -64 -213
-73 -8 -2 -25 -5 -39 -9 -13 -3 -80 9 -155 29 -144 38 -159 41 -291 58 -99 13
-178 3 -253 -33 -23 -11 -75 -31 -116 -44 -42 -13 -109 -42 -150 -64 -61 -34
-83 -41 -128 -41 -115 0 -342 85 -399 150 -43 49 -93 67 -203 76 -45 3 -98 9
-117 13 -31 6 -174 8 -271 3 -23 -1 -55 -15 -85 -35 -54 -37 -92 -53 -144 -61
-66 -11 -255 -112 -318 -170 -88 -82 -109 -118 -117 -201 -8 -86 -19 -99 -131
-156 l-84 -42 34 -41 c54 -67 57 -76 40 -137 -34 -120 -83 -337 -87 -383 -7
-83 8 -120 77 -182 58 -54 139 -101 188 -109 43 -8 163 -27 191 -30 42 -6 100
-15 122 -19 11 -2 52 -7 90 -11 39 -4 84 -8 100 -10 141 -16 315 -25 521 -27
l182 -1 -13 -36 c-16 -43 -71 -171 -114 -263 -17 -36 -31 -69 -31 -72 0 -4
-28 -64 -61 -134 -76 -157 -86 -189 -105 -332 -9 -74 -12 -366 -3 -410 4 -19
10 -55 13 -80 11 -82 16 -125 22 -160 3 -19 7 -156 9 -304 5 -287 12 -339 60
-422 42 -72 86 -104 258 -190 93 -46 172 -86 176 -88 4 -3 176 -88 382 -190
288 -142 385 -195 420 -228 59 -56 238 -270 317 -381 l63 -87 2415 0 2415 0
-29 43 c-16 23 -102 143 -191 267 -88 124 -165 232 -171 240 -6 8 -42 60 -80
115 -39 55 -76 109 -82 119 -19 28 -251 340 -257 346 -3 3 -31 34 -61 70 -30
36 -64 75 -75 86 -284 300 -487 478 -740 649 -137 92 -222 160 -293 235 -49
51 -148 178 -180 232 -24 39 -24 50 2 193 21 113 21 113 65 253 45 145 70 229
76 262 14 74 85 353 91 359 7 7 192 -17 212 -28 18 -9 78 -17 202 -27 41 -3
91 -7 110 -9 38 -4 159 -13 255 -20 33 -2 110 -7 170 -12 141 -9 571 -10 650
0 148 17 214 38 251 79 99 111 160 211 181 298 19 82 9 308 -17 376 -6 14 -5
35 2 55 25 73 -14 205 -72 241 -13 8 -20 24 -20 44 0 68 -70 134 -146 136 -48
2 -162 -10 -174 -17 -4 -2 -22 -7 -41 -10 -19 -3 -41 -8 -49 -10 -27 -8 -356
81 -392 106 -18 13 -59 47 -91 75 -96 86 -141 100 -242 78 -33 -7 -76 -13 -96
-13 -39 -1 -436 114 -509 147 -109 49 -244 63 -385 41z m-484 -1591 c-15 -24
-45 -74 -66 -113 -56 -103 -49 -103 -105 0 -18 33 -43 79 -56 102 -12 22 -21
43 -19 45 2 2 65 5 140 7 l135 2 -29 -43z m-1501 -55 l28 -62 -55 -58 c-98
-103 -175 -206 -208 -278 -18 -38 -46 -99 -63 -135 -16 -36 -52 -114 -80 -175
-28 -60 -66 -144 -85 -185 -19 -41 -44 -95 -55 -120 -11 -25 -39 -85 -62 -135
-92 -197 -152 -331 -156 -349 -2 -10 -10 -29 -19 -42 -31 -48 -115 -21 -131
42 -12 47 -2 73 161 409 34 72 66 139 70 150 7 21 8 165 1 200 -18 99 -25 84
71 162 122 99 205 182 302 298 46 55 93 111 105 125 40 48 103 147 122 193 10
26 21 41 23 34 2 -6 16 -40 31 -74z m-1207 22 c-120 -108 -203 -235 -277 -425
-21 -52 -40 -103 -44 -113 -4 -10 -6 58 -5 150 1 160 -14 317 -37 386 -8 25
-7 27 18 28 63 3 286 21 289 23 1 1 28 3 60 4 l58 2 -62 -55z m1692 -853 c16
-26 52 -69 78 -97 46 -47 187 -228 187 -240 0 -2 20 -36 45 -75 25 -39 45 -72
45 -75 0 -2 13 -26 29 -54 29 -49 29 -51 29 -205 -1 -183 -1 -185 -105 -210
-37 -8 -135 -32 -216 -51 -81 -19 -159 -36 -172 -37 -41 -4 -74 23 -140 112
-71 95 -95 143 -89 177 2 13 38 123 80 245 42 123 82 243 89 268 28 94 98 290
104 290 3 0 19 -21 36 -48z"/>
</g>
</svg>
