<?xml version="1.0" encoding="UTF-8"?>
<svg version="1.1" xmlns="http://www.w3.org/2000/svg" width="256" height="256">
<path d="M0 0 C0.76183594 -0.01417969 1.52367188 -0.02835937 2.30859375 -0.04296875 C4.80283376 0.21207486 6.35835027 1.04152697 8.5625 2.1875 C10.99967258 1.91715366 10.99967258 1.91715366 13.5625 1.1875 C18.96564136 0.06184555 18.96564136 0.06184555 21.9375 0.6875 C24.7892654 1.23069341 27.0640358 0.86985459 29.91015625 0.44921875 C33.54313183 0.09073662 37.16557248 0.06865135 40.8125 0.0625 C41.51028564 0.05806885 42.20807129 0.0536377 42.92700195 0.04907227 C46.32172497 0.05848046 49.28787538 0.36133324 52.5625 1.1875 C53.5525 0.8575 54.5425 0.5275 55.5625 0.1875 C61.66641958 -0.47375795 66.94528731 0.64178378 72.7734375 2.3984375 C76.3318862 3.40516948 79.91429477 4.00153568 83.56640625 4.5625 C85.5625 5.1875 85.5625 5.1875 87.5625 8.1875 C87.8984375 10.52734375 87.8984375 10.52734375 87.9375 13.125 C87.96585937 13.97964844 87.99421875 14.83429688 88.0234375 15.71484375 C87.38997639 19.1129868 86.38540773 20.20874153 83.5625 22.1875 C80.171875 22.61328125 80.171875 22.61328125 76.3125 22.5 C75.64661865 22.48453125 74.9807373 22.4690625 74.29467773 22.453125 C69.6627755 22.3175406 65.13263786 21.93364496 60.5625 21.1875 C59.25212575 26.05460434 58.69087945 30.19457535 59.5625 35.1875 C62.28457498 38.96822134 66.19067197 41.52862067 69.8828125 44.29296875 C75.33901838 48.39277465 79.8986675 53.89780863 82.38671875 60.3125 C82.5625 62.1875 82.5625 62.1875 80.5625 65.1875 C77.66347319 66.26330799 74.88410311 66.3185358 71.81323242 66.33276367 C70.87513229 66.33914352 69.93703217 66.34552338 68.97050476 66.35209656 C67.96316788 66.35320938 66.95583099 66.3543222 65.91796875 66.35546875 C64.8748201 66.35879715 63.83167145 66.36212555 62.75691223 66.36555481 C60.55042969 66.37061534 58.34393951 66.3729634 56.13745117 66.37280273 C52.77314528 66.37498499 49.40916959 66.39313852 46.04492188 66.41210938 C43.89843862 66.41504437 41.75195381 66.41702846 39.60546875 66.41796875 C38.60420456 66.42515427 37.60294037 66.43233978 36.57133484 66.43974304 C28.96133231 66.41503406 23.32874286 66.03130492 17.5078125 60.6875 C13.81299281 57.83848241 9.52737034 55.86804398 5.390625 53.73828125 C2.5625 52.1875 2.5625 52.1875 0.5625 50.1875 C-0.06093398 47.20608424 -0.14754365 44.16277877 -0.3125 41.125 C-0.36075928 40.26479248 -0.40901855 39.40458496 -0.45874023 38.51831055 C-0.68914164 32.07746065 0.10233275 27.74473831 3.5625 22.1875 C2.59828125 22.13851562 1.6340625 22.08953125 0.640625 22.0390625 C-0.62265625 21.96429688 -1.8859375 21.88953125 -3.1875 21.8125 C-4.44046875 21.74289063 -5.6934375 21.67328125 -6.984375 21.6015625 C-10.04748121 21.23426696 -11.85724266 20.79038714 -14.4375 19.1875 C-14.49141993 17.39616022 -14.53025571 15.60436101 -14.5625 13.8125 C-14.58570312 12.81476563 -14.60890625 11.81703125 -14.6328125 10.7890625 C-14.4375 8.1875 -14.4375 8.1875 -12.4375 6.1875 C-11.633125 5.341875 -10.82875 4.49625 -10 3.625 C-6.71039845 0.49586682 -4.380721 0.03693694 0 0 Z M12.5625 21.1875 C12.8925 22.5075 13.2225 23.8275 13.5625 25.1875 C14.2225 23.8675 14.8825 22.5475 15.5625 21.1875 C14.5725 21.1875 13.5825 21.1875 12.5625 21.1875 Z M27.5625 26.1875 C28.5625 28.1875 28.5625 28.1875 28.5625 28.1875 Z M24.5625 29.1875 C24.5625 31.1675 24.5625 33.1475 24.5625 35.1875 C26.30877478 32.56808783 26.94972388 31.14925123 27.5625 28.1875 C26.3388932 28.1129644 26.3388932 28.1129644 24.5625 29.1875 Z M37.5625 33.1875 C36.14845686 36.98774093 35.21357676 40.11672882 35.5625 44.1875 C35.8925 44.5175 36.2225 44.8475 36.5625 45.1875 C38.90194736 44.90019945 41.2364143 44.56813221 43.5625 44.1875 C43.9513868 41.54306973 43.95790909 39.79923798 42.484375 37.51953125 C41.24335526 36.01818266 39.90667351 34.59724295 38.5625 33.1875 C38.2325 33.1875 37.9025 33.1875 37.5625 33.1875 Z M23.5625 35.1875 C23.2325 36.5075 22.9025 37.8275 22.5625 39.1875 C23.2225 37.8675 23.8825 36.5475 24.5625 35.1875 C24.2325 35.1875 23.9025 35.1875 23.5625 35.1875 Z M21.5625 39.1875 C22.5625 41.1875 22.5625 41.1875 22.5625 41.1875 Z " fill="#D3D3D3" transform="translate(91.4375,97.8125)"/>
<path d="M0 0 C0.76183594 -0.01417969 1.52367188 -0.02835937 2.30859375 -0.04296875 C4.80283376 0.21207486 6.35835027 1.04152697 8.5625 2.1875 C10.99967258 1.91715366 10.99967258 1.91715366 13.5625 1.1875 C18.96564136 0.06184555 18.96564136 0.06184555 21.9375 0.6875 C24.7892654 1.23069341 27.0640358 0.86985459 29.91015625 0.44921875 C33.54313183 0.09073662 37.16557248 0.06865135 40.8125 0.0625 C41.51028564 0.05806885 42.20807129 0.0536377 42.92700195 0.04907227 C46.32172497 0.05848046 49.28787538 0.36133324 52.5625 1.1875 C53.5525 0.8575 54.5425 0.5275 55.5625 0.1875 C61.66641958 -0.47375795 66.94528731 0.64178378 72.7734375 2.3984375 C76.3318862 3.40516948 79.91429477 4.00153568 83.56640625 4.5625 C85.5625 5.1875 85.5625 5.1875 87.5625 8.1875 C87.8984375 10.52734375 87.8984375 10.52734375 87.9375 13.125 C87.96585937 13.97964844 87.99421875 14.83429688 88.0234375 15.71484375 C87.38997639 19.1129868 86.38540773 20.20874153 83.5625 22.1875 C80.171875 22.61328125 80.171875 22.61328125 76.3125 22.5 C75.64661865 22.48453125 74.9807373 22.4690625 74.29467773 22.453125 C69.6627755 22.3175406 65.13263786 21.93364496 60.5625 21.1875 C60.0675 19.2075 60.0675 19.2075 59.5625 17.1875 C56.70238389 17.50529068 54.83475198 18.00332954 52.4375 19.625 C50.11496307 22.7991338 49.30688707 25.80100612 48.2890625 29.5703125 C47.27863605 33.21002068 45.93093422 36.66866915 44.5625 40.1875 C38.82668787 34.89290418 38.82668787 34.89290418 38.5625 31.1875 C39.94490126 28.53069757 41.6086263 26.18338457 43.3125 23.72265625 C44.80498564 20.69570882 44.55751712 19.34781005 43.5625 16.1875 C38.69278826 16.60490386 36.84065116 18.73215148 33.5625 22.1875 C32.9025 22.1875 32.2425 22.1875 31.5625 22.1875 C30.9025 19.8775 30.2425 17.5675 29.5625 15.1875 C25.95430972 15.5155173 23.90618505 16.56213442 21.125 18.75 C17.81649264 21.24035153 15.7656808 21.73574097 11.5625 21.1875 C10.655 20.98125 9.7475 20.775 8.8125 20.5625 C8.07 20.43875 7.3275 20.315 6.5625 20.1875 C5.9025 20.8475 5.2425 21.5075 4.5625 22.1875 C-1.62247674 22.62928405 -7.44969626 21.78658209 -13.4375 20.1875 C-15.17599628 18.44900372 -14.60966296 16.1088363 -14.625 13.75 C-14.63917969 12.76128906 -14.65335937 11.77257812 -14.66796875 10.75390625 C-14.4375 8.1875 -14.4375 8.1875 -12.4375 6.1875 C-11.633125 5.341875 -10.82875 4.49625 -10 3.625 C-6.71039845 0.49586682 -4.380721 0.03693694 0 0 Z " fill="#AEAEAE" transform="translate(91.4375,97.8125)"/>
<path d="M0 0 C5.75 -0.125 5.75 -0.125 8 1 C9.10514766 4.31544299 9.32107631 7.20410111 9.5625 10.6875 C9.68818359 12.45673828 9.68818359 12.45673828 9.81640625 14.26171875 C9.87699219 15.16535156 9.93757813 16.06898437 10 17 C10.50789063 16.6390625 11.01578125 16.278125 11.5390625 15.90625 C18.8019802 11.00990099 18.8019802 11.00990099 24 12 C26.15432062 15.23148093 26.61282675 16.24788147 26 20 C24.0234375 21.87890625 24.0234375 21.87890625 21.375 23.5625 C20.4675 24.1709375 19.56 24.779375 18.625 25.40625 C16 27 16 27 12.375 28.5625 C9.17893442 31.84267257 9.6430812 33.7432601 9.625 38.25 C9.72148869 40.50140288 9.83773865 42.75237987 10 45 C10.50789063 44.6390625 11.01578125 44.278125 11.5390625 43.90625 C15.76430554 41.05777155 18.71424419 39.1190407 24 40 C26 42 26 42 26.4375 44.875 C26 48 26 48 23.83203125 50.0078125 C21.05892388 51.9585501 18.25513892 53.44057656 15.25 55 C11.05307188 57.5716092 11.05307188 57.5716092 9.171875 61.9453125 C8.9508818 65.09573955 8.9508818 65.09573955 9.125 68.1328125 C8.97475775 71.57899416 8.07597216 73.27773461 6 76 C3.5 76.625 3.5 76.625 1 76 C-2.13434242 72.75371678 -2.04488268 69.89426404 -2.0625 65.625 C-2.28670663 61.99870149 -2.48516627 60.52066204 -5.0703125 57.90625 C-7.65616627 56.14632564 -10.28683404 54.55505741 -13 53 C-18.77070376 49.0700491 -18.77070376 49.0700491 -19.5625 45.375 C-19 43 -19 43 -17.875 41.125 C-16 40 -16 40 -13.25 40 C-9.05504417 41.29075564 -6.45450157 43.30548878 -3 46 C-2.03817726 41.05551866 -1.7144773 36.90327828 -3 32 C-6.62826738 27.97802439 -11.61791068 25.46528895 -16.39599609 23.03637695 C-18 22 -18 22 -20 19 C-19.77392937 16.58857999 -19.13710602 15.20926708 -17.8125 13.1875 C-16 12 -16 12 -13.25 12 C-9.05504417 13.29075564 -6.45450157 15.30548878 -3 18 C-2.95101562 17.11957031 -2.90203125 16.23914063 -2.8515625 15.33203125 C-2.77679688 14.17058594 -2.70203125 13.00914063 -2.625 11.8125 C-2.55539063 10.66394531 -2.48578125 9.51539063 -2.4140625 8.33203125 C-2.02490426 5.20040883 -1.3190149 2.84714191 0 0 Z " fill="#D3D3D3" transform="translate(126,0)"/>
<path d="M0 0 C2.375 0.8984375 2.375 0.8984375 4.375 3.8984375 C4.2578125 6.39453125 4.2578125 6.39453125 3.375 8.8984375 C1.4921875 10.49609375 1.4921875 10.49609375 -0.75 11.9609375 C-3.51442471 14.21781187 -4.53438716 15.14228897 -4.96484375 18.734375 C-4.68683652 21.8433573 -4.22684382 24.83635375 -3.625 27.8984375 C-2.4507696 35.14343909 -2.4507696 35.14343909 -3.1875 38.3359375 C-5.34514809 40.68120716 -7.54684992 40.63077228 -10.625 40.8984375 C-15.26822514 36.40499382 -15.38682476 32.03144986 -15.625 25.8984375 C-16.91743468 27.0225551 -18.20892075 28.14776342 -19.5 29.2734375 C-20.21929687 29.89992187 -20.93859375 30.52640625 -21.6796875 31.171875 C-23.0326598 32.37270584 -24.3458345 33.619272 -25.625 34.8984375 C-25.6831842 36.97622937 -25.6831842 36.97622937 -25.3125 39.328125 C-25.20679688 40.20597656 -25.10109375 41.08382812 -24.9921875 41.98828125 C-24.74840818 43.83737333 -24.50362488 45.68633334 -24.2578125 47.53515625 C-24.15210938 48.41558594 -24.04640625 49.29601562 -23.9375 50.203125 C-23.83050781 51.00733887 -23.72351563 51.81155273 -23.61328125 52.64013672 C-23.62704717 55.29294424 -24.16795508 56.69642354 -25.625 58.8984375 C-28 59.8359375 -28 59.8359375 -30.625 59.8984375 C-33.63277185 58.27446943 -34.50480854 57.23344876 -35.671875 53.98046875 C-36.01992188 52.36205078 -36.01992188 52.36205078 -36.375 50.7109375 C-36.61734375 49.62425781 -36.8596875 48.53757813 -37.109375 47.41796875 C-37.27953125 46.58652344 -37.4496875 45.75507813 -37.625 44.8984375 C-38.28886719 45.53652344 -38.95273437 46.17460937 -39.63671875 46.83203125 C-40.51972656 47.65832031 -41.40273438 48.48460937 -42.3125 49.3359375 C-43.18261719 50.15964844 -44.05273438 50.98335937 -44.94921875 51.83203125 C-47.6827351 53.94302417 -49.19726051 54.75947509 -52.625 54.8984375 C-54.9375 52.9609375 -54.9375 52.9609375 -56.625 50.8984375 C-55.165235 45.54596584 -51.53119031 42.56973441 -47.625 38.8984375 C-46.62159287 37.90185627 -45.62042341 36.90299324 -44.625 35.8984375 C-45.65625 35.7953125 -46.6875 35.6921875 -47.75 35.5859375 C-51.64292678 34.89525694 -54.3071423 34.03134602 -57.625 31.8984375 C-58.6875 30.0234375 -58.6875 30.0234375 -58.625 27.8984375 C-57.1875 25.1484375 -57.1875 25.1484375 -55.625 22.8984375 C-50.26315641 23.3452578 -45.6885163 24.18154342 -40.5625 25.8359375 C-36.31574685 26.97991593 -36.31574685 26.97991593 -32.1875 25.8984375 C-28.68309047 23.32166578 -26.15986586 20.41951258 -23.625 16.8984375 C-24.841875 16.7953125 -26.05875 16.6921875 -27.3125 16.5859375 C-31.04609819 16.10268809 -33.68602226 15.39211558 -36.625 12.8984375 C-37.6875 10.4609375 -37.6875 10.4609375 -37.625 7.8984375 C-36.125 5.5234375 -36.125 5.5234375 -33.625 3.8984375 C-28.29781159 4.00715563 -23.33559865 5.79398119 -18.2734375 7.375 C-15.26429702 7.96972688 -13.52785834 7.87545131 -10.625 6.8984375 C-8.47476003 5.1635848 -6.62023567 3.26857712 -4.6875 1.296875 C-2.625 -0.1015625 -2.625 -0.1015625 0 0 Z " fill="#D3D3D3" transform="translate(91.625,166.1015625)"/>
<path d="M0 0 C2.5625 0.4375 2.5625 0.4375 4.3125 2.25 C5.5625 5.4375 5.5625 5.4375 5.4375 7.8671875 C5.28744892 11.17768954 5.37894123 13.31340671 6.5625 16.4375 C9.40085578 19.13295082 12.70807047 21.0823768 16.10253906 23.00073242 C21.31172627 25.96255984 21.31172627 25.96255984 23.03515625 29.2265625 C23.20917969 29.95617187 23.38320312 30.68578125 23.5625 31.4375 C21.9125 33.0875 20.2625 34.7375 18.5625 36.4375 C13.94736888 35.11889111 10.46352388 33.22394563 6.5625 30.4375 C5.60067726 35.38198134 5.2769773 39.53422172 6.5625 44.4375 C10.19076738 48.45947561 15.18041068 50.97221105 19.95849609 53.40112305 C21.5625 54.4375 21.5625 54.4375 23.5625 57.4375 C23.33301008 59.8853925 22.70667022 61.22845318 21.3125 63.25 C19.5625 64.4375 19.5625 64.4375 17.375 64.4375 C13.39256936 63.02152466 10.05690224 60.78733377 6.5625 58.4375 C6.44132812 59.56929687 6.32015625 60.70109375 6.1953125 61.8671875 C6.02649724 63.34901031 5.85720145 64.83077842 5.6875 66.3125 C5.56955078 67.43205078 5.56955078 67.43205078 5.44921875 68.57421875 C4.7890625 74.2109375 4.7890625 74.2109375 2.5625 76.4375 C0.0625 76.6875 0.0625 76.6875 -2.4375 76.4375 C-5.24947457 73.62552543 -5.13652557 70.59738755 -5.5625 66.8125 C-5.64886719 66.10609375 -5.73523438 65.3996875 -5.82421875 64.671875 C-6.03631183 62.92799859 -6.23790991 61.1828516 -6.4375 59.4375 C-7.21673828 59.97890625 -7.21673828 59.97890625 -8.01171875 60.53125 C-13.67941375 64.30272911 -13.67941375 64.30272911 -17.25 64.9375 C-19.4375 64.4375 -19.4375 64.4375 -21.3125 63.3125 C-22.4375 61.4375 -22.4375 61.4375 -22.48046875 58.6015625 C-20.95639316 53.97796239 -18.01570063 53.11820913 -13.875 50.9375 C-11.12415122 49.33998787 -8.62549442 47.76343639 -6.4375 45.4375 C-5.14366079 40.53721134 -5.47596797 36.38048687 -6.4375 31.4375 C-6.93378906 31.81003906 -7.43007812 32.18257812 -7.94140625 32.56640625 C-11.73966707 35.21149491 -13.61416257 36.4636377 -18.375 36.3125 C-21.4375 35.4375 -21.4375 35.4375 -22.4375 34.4375 C-22.8125 31.625 -22.8125 31.625 -22.4375 28.4375 C-19.97356732 26.1378295 -17.63629199 24.5356587 -14.61328125 23.04296875 C-11.37422656 21.43890756 -8.99896466 20.0073082 -6.4375 17.4375 C-5.23842291 13.33130796 -4.89005539 9.93624713 -4.68359375 5.66796875 C-4.38778567 1.7849008 -3.89110746 0.6984039 0 0 Z " fill="#D3D3D3" transform="translate(128.4375,179.5625)"/>
<path d="M0 0 C5.48413654 -0.3656091 5.48413654 -0.3656091 7.70825195 1.21069336 C9.44857678 3.62136066 9.19727399 4.89182652 8.85546875 7.81640625 C8.75556641 8.74517578 8.65566406 9.67394531 8.55273438 10.63085938 C8.43220703 11.59830078 8.31167969 12.56574219 8.1875 13.5625 C7.97241562 15.48044178 7.75756049 17.39840929 7.54296875 19.31640625 C7.3886438 20.59173218 7.3886438 20.59173218 7.23120117 21.89282227 C6.96364459 23.9780409 6.96364459 23.9780409 7 26 C7.53625 26.226875 8.0725 26.45375 8.625 26.6875 C11.78500863 28.43382056 14.2676983 30.6402849 17 33 C17.10957031 32.16855469 17.21914062 31.33710937 17.33203125 30.48046875 C17.49058594 29.39378906 17.64914063 28.30710937 17.8125 27.1875 C17.96332031 26.10855469 18.11414063 25.02960937 18.26953125 23.91796875 C19.01820275 20.92728636 19.502312 19.75146517 22 18 C25.03463926 18.07586598 26.48031605 18.51480309 28.70703125 20.59375 C30.5972196 24.11144192 29.84620138 26.55077667 29.1875 30.4375 C27.95455801 36.69692683 27.95455801 36.69692683 28 43 C29.69296777 44.93127804 29.69296777 44.93127804 31.9375 46.5 C34.56802562 48.467095 35.80788105 49.42276589 36.85546875 52.5703125 C37 55 37 55 35.375 57.375 C33 59 33 59 30.58203125 58.83203125 C27.55251595 57.85580317 26.42924787 56.64964678 24.3125 54.3125 C21.36085399 51.56373397 21.36085399 51.56373397 17.5078125 50.9140625 C14.91869061 51.44133048 12.49707191 52.13908142 10 53 C1.33727811 55.55621302 1.33727811 55.55621302 -2 55 C-4.34699077 52.88770831 -4.93625056 51.63749438 -5.25 48.5 C-3.45836973 44.91673945 -0.92254358 44.20397277 2.67578125 42.69921875 C5 42 5 42 9 42 C4.15386444 35.37584968 4.15386444 35.37584968 -3 32 C-6.66979332 32.71000663 -10.06988242 33.75257773 -13.59765625 34.984375 C-16.98171167 35.9945408 -19.49660282 36.3875665 -23 36 C-24.875 33.5 -24.875 33.5 -26 31 C-24.82035656 28.27207455 -23.79541481 26.42422123 -21.125 25 C-17.91583419 23.77296602 -15.4654325 23 -12 23 C-12 22.34 -12 21.68 -12 21 C-12.87398437 20.60748047 -12.87398437 20.60748047 -13.765625 20.20703125 C-17.51466148 18.18176504 -20.35921039 15.32251519 -23 12 C-23.75 9.25 -23.75 9.25 -23 7 C-20.5 5.1875 -20.5 5.1875 -18 4 C-13.30834891 6.97519337 -9.15296809 10.31393365 -5 14 C-4.731875 12.989375 -4.46375 11.97875 -4.1875 10.9375 C-3.1064844 7.12672558 -1.62137662 3.61124792 0 0 Z " fill="#D3D3D3" transform="translate(58,37)"/>
<path d="M0 0 C2.5 1.375 2.5 1.375 3.6875 3.5 C4.70762267 7.10966482 5.63388299 10.72493546 6.5 14.375 C7.14066406 13.7253125 7.78132813 13.075625 8.44140625 12.40625 C15.4220933 5.66484135 15.4220933 5.66484135 18.72265625 4.77734375 C20.625 4.8125 20.625 4.8125 23.5 5.375 C24.30859375 8.53515625 24.30859375 8.53515625 24.5 12.375 C22.41015625 15.24609375 22.41015625 15.24609375 19.5625 17.8125 C18.62535156 18.67746094 17.68820313 19.54242188 16.72265625 20.43359375 C15.62244141 21.39458984 15.62244141 21.39458984 14.5 22.375 C15.18707031 22.62894531 15.87414062 22.88289063 16.58203125 23.14453125 C17.48308594 23.48871094 18.38414062 23.83289063 19.3125 24.1875 C20.20582031 24.52394531 21.09914062 24.86039063 22.01953125 25.20703125 C24.44842599 26.35071554 25.87712051 27.25109731 27.5 29.375 C27.25546876 32.71692692 26.89456443 33.98043557 24.5 36.375 C20.18392961 36.48048441 15.99338157 35.51961184 11.875 34.3125 C8.00527508 33.23757641 5.49040125 32.74493664 1.5 33.375 C-1.43888061 35.44980832 -3.98237669 37.81160172 -6.5 40.375 C-3.46672162 42.39718559 -0.75172269 43.42468906 2.66015625 44.59375 C4.5 45.375 4.5 45.375 6.5 47.375 C6.85435046 50.13893359 6.81890064 51.7770613 5.5 54.25 C1.5256574 56.48556772 -3.1327722 54.75744134 -7.29296875 53.59375 C-9.16345624 53.04850668 -11.02865669 52.48462784 -12.88671875 51.8984375 C-15.88297734 51.29829004 -17.60389926 51.41427427 -20.5 52.375 C-22.78293479 53.96740314 -22.78293479 53.96740314 -24.8125 55.9375 C-25.85857422 56.89849609 -25.85857422 56.89849609 -26.92578125 57.87890625 C-27.44527344 58.37261719 -27.96476563 58.86632812 -28.5 59.375 C-33.375 57.5 -33.375 57.5 -34.5 56.375 C-35.0625 53.75 -35.0625 53.75 -34.5 50.375 C-32.68847656 48.90966797 -32.68847656 48.90966797 -30.453125 47.3671875 C-27.87990012 45.20756249 -26.64987225 44.12414846 -25.98413086 40.79638672 C-26.04554591 37.86120614 -26.30542373 35.03569158 -26.6875 32.125 C-26.90282216 30.16289278 -27.10526095 28.19931626 -27.29296875 26.234375 C-27.45575317 24.94225098 -27.45575317 24.94225098 -27.62182617 23.62402344 C-27.5 21.375 -27.5 21.375 -26.16918945 19.56738281 C-24.5 18.375 -24.5 18.375 -22 18.4375 C-18.93926927 19.58527402 -18.18965013 20.60968528 -16.5 23.375 C-15.98828125 25.953125 -15.98828125 25.953125 -15.8125 28.625 C-15.71388672 29.96304688 -15.71388672 29.96304688 -15.61328125 31.328125 C-15.57589844 32.00359375 -15.53851563 32.6790625 -15.5 33.375 C-11.67890611 31.0917453 -8.39397848 28.78090969 -5.5 25.375 C-4.81357602 21.16643332 -5.57222823 17.50275104 -6.5 13.375 C-7.82849031 6.11019261 -7.82849031 6.11019261 -6.1875 2.4375 C-3.99682239 -0.23999486 -3.41146593 -0.85286648 0 0 Z " fill="#D3D3D3" transform="translate(197.5,35.625)"/>
<path d="M0 0 C2.5905089 1.0724413 4.10171193 2.61429229 6.12890625 4.54296875 C8.89531996 6.77983793 10.29818079 7.83206022 13.88671875 7.94140625 C17.88509671 7.21145714 21.55741185 6.03793844 25.37890625 4.66796875 C28.68900761 3.66724043 30.76607144 3.88036983 34.06640625 4.85546875 C36.06640625 7.85546875 36.06640625 7.85546875 36.00390625 10.35546875 C35.06640625 12.85546875 35.06640625 12.85546875 33.00390625 14.60546875 C29.28071252 16.18980651 26.09372415 16.51417062 22.06640625 16.85546875 C25.02032141 20.831893 27.83912584 24.2233885 32.06640625 26.85546875 C35.2565128 26.76232695 38.05740055 25.87074515 41.06640625 24.85546875 C49.61265407 22.24813891 49.61265407 22.24813891 54.06640625 22.85546875 C56.00390625 24.60546875 56.00390625 24.60546875 57.06640625 26.85546875 C56.91671008 29.32545552 56.38184126 30.47655611 54.8046875 32.37109375 C52.74155897 34.13286642 50.96536988 34.75578417 48.37890625 35.54296875 C47.57066406 35.79433594 46.76242188 36.04570312 45.9296875 36.3046875 C45.31480469 36.48644531 44.69992188 36.66820312 44.06640625 36.85546875 C44.78828125 37.51933594 45.51015625 38.18320313 46.25390625 38.8671875 C47.18203125 39.75019531 48.11015625 40.63320312 49.06640625 41.54296875 C49.99453125 42.41308594 50.92265625 43.28320312 51.87890625 44.1796875 C54.06640625 46.85546875 54.06640625 46.85546875 54.484375 49.56640625 C54.06640625 51.85546875 54.06640625 51.85546875 52.37890625 53.79296875 C50.06640625 54.85546875 50.06640625 54.85546875 47.72265625 54.1796875 C44.7608348 52.70313239 42.67933793 50.97489807 40.25390625 48.73046875 C39.46371094 48.00601563 38.67351562 47.2815625 37.859375 46.53515625 C37.26769531 45.98085937 36.67601562 45.4265625 36.06640625 44.85546875 C34.03182367 46.89005133 34.14161332 50.65721623 33.6640625 53.41015625 C33.06640625 55.85546875 33.06640625 55.85546875 31.06640625 58.85546875 C28.12890625 59.29296875 28.12890625 59.29296875 25.06640625 58.85546875 C23.32421875 57.32421875 23.32421875 57.32421875 22.06640625 54.85546875 C22.1743984 52.07977863 22.41632902 49.63159025 22.87890625 46.91796875 C23.29489846 44.23248058 23.68663963 41.54662072 24.06640625 38.85546875 C24.25783203 37.50195312 24.25783203 37.50195312 24.453125 36.12109375 C23.85898912 32.64029768 21.84114846 31.58934113 19.06640625 29.54296875 C18.13828125 28.84558594 17.21015625 28.14820313 16.25390625 27.4296875 C15.53203125 26.91019531 14.81015625 26.39070313 14.06640625 25.85546875 C13.90205078 27.10263672 13.90205078 27.10263672 13.734375 28.375 C13.57582031 29.46167969 13.41726562 30.54835937 13.25390625 31.66796875 C13.10308594 32.74691406 12.95226562 33.82585937 12.796875 34.9375 C12.04719459 37.93221266 11.59847231 39.1348841 9.06640625 40.85546875 C5.94140625 40.66796875 5.94140625 40.66796875 3.06640625 39.85546875 C1.88932527 37.50130678 1.93291612 36.10391801 1.94140625 33.48046875 C1.93882812 32.58972656 1.93625 31.69898438 1.93359375 30.78125 C2.06640625 27.85546875 2.06640625 27.85546875 2.57421875 24.7734375 C3.06908076 21.65109384 3.41850075 19.00203479 3.06640625 15.85546875 C1.20895403 13.61298657 -0.74105037 12.13572697 -3.10546875 10.44921875 C-4.93359375 8.85546875 -4.93359375 8.85546875 -5.62109375 5.04296875 C-4.86277501 1.52712732 -3.93152093 -0.29387126 0 0 Z " fill="#D3D3D3" transform="translate(168.93359375,165.14453125)"/>
<path d="M0 0 C3.59959915 1.2264121 4.64974782 3.03759889 6.7734375 6.15234375 C7.43601563 7.10625 8.09859375 8.06015625 8.78125 9.04296875 C10.6484375 11.90234375 10.6484375 11.90234375 11.953125 14.7265625 C13.53349144 17.25713193 13.53349144 17.25713193 16.8984375 17.46875 C18.1359375 17.46746094 19.3734375 17.46617188 20.6484375 17.46484375 C27.11074073 17.47157532 27.11074073 17.47157532 29.7109375 19.5546875 C30.6484375 21.90234375 30.6484375 21.90234375 29.8359375 25.15234375 C29.248125 26.51359375 29.248125 26.51359375 28.6484375 27.90234375 C27.75382812 27.80050781 26.85921875 27.69867188 25.9375 27.59375 C18.97483722 27.22216874 18.97483722 27.22216874 13.03613281 30.38964844 C9.70350296 34.57034315 7.21567294 39.22933874 4.6484375 43.90234375 C2.6484375 45.90234375 2.6484375 45.90234375 0.2109375 46.21484375 C-2.3515625 45.90234375 -2.3515625 45.90234375 -4.2265625 44.83984375 C-6.10503598 41.60469498 -5.28134539 39.44714103 -4.3515625 35.90234375 C-2.86026119 33.10554261 -1.17504962 30.49290663 0.6484375 27.90234375 C-4.34452345 27.33398076 -8.54114737 27.35862875 -13.3515625 28.90234375 C-17.80251841 33.00822252 -20.47071549 38.65848793 -23.3515625 43.90234375 C-25.3515625 45.90234375 -25.3515625 45.90234375 -28.3515625 46.21484375 C-29.3415625 46.11171875 -30.3315625 46.00859375 -31.3515625 45.90234375 C-33.53722923 42.62384365 -33.80583812 41.70122365 -33.3515625 37.90234375 C-32.0390625 35.4453125 -32.0390625 35.4453125 -30.3515625 33.08984375 C-29.7946875 32.29964844 -29.2378125 31.50945312 -28.6640625 30.6953125 C-28.2309375 30.10363281 -27.7978125 29.51195312 -27.3515625 28.90234375 C-28.55554688 28.86496094 -29.75953125 28.82757813 -31 28.7890625 C-32.57555261 28.72341447 -34.15107204 28.65696674 -35.7265625 28.58984375 C-36.520625 28.56728516 -37.3146875 28.54472656 -38.1328125 28.52148438 C-40.21371831 28.424493 -42.28597582 28.1723955 -44.3515625 27.90234375 C-46.3515625 24.90234375 -46.3515625 24.90234375 -46.1015625 22.33984375 C-45.3515625 19.90234375 -45.3515625 19.90234375 -43.3515625 17.90234375 C-40.78239593 17.59635312 -38.30397866 17.39147288 -35.7265625 17.27734375 C-34.66695312 17.21933594 -34.66695312 17.21933594 -33.5859375 17.16015625 C-31.84157726 17.06586651 -30.09660559 16.98301484 -28.3515625 16.90234375 C-28.80789062 16.23847656 -29.26421875 15.57460937 -29.734375 14.890625 C-30.30929688 14.00761719 -30.88421875 13.12460938 -31.4765625 12.21484375 C-32.34667969 10.90966797 -32.34667969 10.90966797 -33.234375 9.578125 C-34.3515625 6.90234375 -34.3515625 6.90234375 -33.59375 4.1328125 C-32.3515625 1.90234375 -32.3515625 1.90234375 -31.3515625 0.90234375 C-28.515625 0.55078125 -28.515625 0.55078125 -25.3515625 0.90234375 C-23.375 2.87890625 -23.375 2.87890625 -21.7265625 5.52734375 C-20.82744141 6.88859375 -20.82744141 6.88859375 -19.91015625 8.27734375 C-18.3515625 10.90234375 -18.3515625 10.90234375 -16.7890625 14.52734375 C-13.50888993 17.72340933 -11.6083024 17.25926255 -7.1015625 17.27734375 C-4.85015962 17.18085506 -2.59918263 17.0646051 -0.3515625 16.90234375 C-0.79628906 16.226875 -1.24101563 15.55140625 -1.69921875 14.85546875 C-2.26511719 13.9634375 -2.83101562 13.07140625 -3.4140625 12.15234375 C-3.98253906 11.270625 -4.55101562 10.38890625 -5.13671875 9.48046875 C-6.3515625 6.90234375 -6.3515625 6.90234375 -6.11328125 4.6875 C-4.73977321 1.46856063 -3.66110276 -0.15203915 0 0 Z " fill="#D3D3D3" transform="translate(46.3515625,105.09765625)"/>
<path d="M0 0 C2.5 1 2.5 1 4.33203125 3.19921875 C5.5 6 5.5 6 4.48046875 8.89453125 C2.8203125 11.59635417 1.16015625 14.29817708 -0.5 17 C6.43 17.495 6.43 17.495 13.5 18 C14.16 16.35 14.82 14.7 15.5 13 C17.00350538 10.68503594 18.52396944 8.4314444 20.125 6.1875 C20.75535156 5.2912793 20.75535156 5.2912793 21.3984375 4.37695312 C22.42779728 2.91479435 23.4632823 1.45695101 24.5 0 C26.81 0.33 29.12 0.66 31.5 1 C32.70188103 4.94903767 33.0256232 6.88567882 31.23046875 10.69140625 C29.71899305 13.17985453 28.16011073 15.60847816 26.5 18 C27.63179687 17.97679688 28.76359375 17.95359375 29.9296875 17.9296875 C31.41145175 17.91093099 32.89322312 17.89273066 34.375 17.875 C35.12136719 17.85824219 35.86773437 17.84148437 36.63671875 17.82421875 C38.59194461 17.8066041 40.54742021 17.89679811 42.5 18 C44.5 20 44.5 20 44.6875 23.5625 C44.5 27 44.5 27 43.5 28 C40.80345146 28.07319621 38.13308542 28.09242537 35.4375 28.0625 C34.67888672 28.05798828 33.92027344 28.05347656 33.13867188 28.04882812 C31.25908129 28.0370068 29.37953101 28.01907078 27.5 28 C27.94472656 28.65226562 28.38945312 29.30453125 28.84765625 29.9765625 C33.48460637 37.137957 33.48460637 37.137957 33.5625 41.5 C32.5 44 32.5 44 29.5 46 C27.03515625 45.91796875 27.03515625 45.91796875 24.5 45 C22.62109375 42.92578125 22.62109375 42.92578125 20.9375 40.3125 C20.33035156 39.41402344 19.72320312 38.51554687 19.09765625 37.58984375 C17.5 35 17.5 35 15.875 31.375 C12.73999976 28.23999976 11.10469953 28.6438108 6.75 28.625 C4.66514919 28.72143583 2.5807543 28.837629 0.5 29 C0.87253906 29.66386719 1.24507812 30.32773438 1.62890625 31.01171875 C2.10199219 31.89472656 2.57507813 32.77773437 3.0625 33.6875 C3.53816406 34.55761719 4.01382813 35.42773438 4.50390625 36.32421875 C5.65875216 39.42645189 5.55279562 40.89451745 4.5 44 C3.84 44.66 3.18 45.32 2.5 46 C-1.1683212 45.89617959 -2.91065405 45.61846383 -5.4765625 42.92578125 C-6.02054688 42.06339844 -6.56453125 41.20101562 -7.125 40.3125 C-8.02412109 38.96285156 -8.02412109 38.96285156 -8.94140625 37.5859375 C-10.5 35 -10.5 35 -12.0625 31.4375 C-15.27496244 28.22503756 -17.09244705 28.5902587 -21.5625 28.375 C-22.79097656 28.38273437 -24.01945313 28.39046875 -25.28515625 28.3984375 C-28.5 28 -28.5 28 -30.4765625 26.14453125 C-31.5 24 -31.5 24 -30.8125 21.3125 C-29.5 19 -29.5 19 -27.5 18 C-26.60152344 18.05800781 -25.70304688 18.11601563 -24.77734375 18.17578125 C-20.95325851 18.33232275 -18.156881 18.1854494 -14.5 17 C-11.32133396 13.98279685 -9.34994109 10.15060549 -7.3046875 6.3203125 C-3.86941176 0 -3.86941176 0 0 0 Z " fill="#D3D3D3" transform="translate(211.5,106)"/>
<path d="M0 0 C1.58630851 1.3395494 3.16887024 2.68366144 4.73828125 4.04296875 C6.36997494 5.45484878 8.01492102 6.85146376 9.66796875 8.23828125 C15.78208154 13.52593465 22.10722232 19.25021288 25 27 C24.41796875 29.76171875 24.41796875 29.76171875 23 32 C19.80594491 33.48912028 16.22175845 33.1002365 12.75 33.0625 C11.67234375 33.05347656 10.5946875 33.04445312 9.484375 33.03515625 C8.66453125 33.02355469 7.8446875 33.01195312 7 33 C6.01836578 31.06374902 5.03977546 29.12595461 4.0625 27.1875 C3.51722656 26.10855469 2.97195312 25.02960938 2.41015625 23.91796875 C1 21 1 21 0 18 C-0.66 18 -1.32 18 -2 18 C-2.20190089 11.64012196 -1.6277833 6.14778871 0 0 Z " fill="#898989" transform="translate(149,131)"/>
<path d="M0 0 C1.32 0 2.64 0 4 0 C5.02826931 3.13667908 4.99386675 4.83184742 3.78515625 7.890625 C3.51123047 8.59960938 3.23730469 9.30859375 2.95507812 10.0390625 C2.66052734 10.76867187 2.36597656 11.49828125 2.0625 12.25 C1.62647461 13.36761719 1.62647461 13.36761719 1.18164062 14.5078125 C0.46426278 16.34241814 -0.26657439 18.17175065 -1 20 C-5.61821934 15.7370283 -5.61821934 15.7370283 -7.01171875 13.046875 C-6.99335895 9.84003031 -5.52226502 7.91511825 -3.8125 5.25 C-3.20019531 4.26515625 -2.58789062 3.2803125 -1.95703125 2.265625 C-1.31121094 1.51796875 -0.66539062 0.7703125 0 0 Z " fill="#888888" transform="translate(137,118)"/>
</svg>
