<?xml version="1.0" encoding="iso-8859-1"?>
<!-- Uploaded to: SVG Repo, www.svgrepo.com, Generator: SVG Repo Mixer Tools -->
<svg fill="#64646499" height="800px" width="800px" version="1.1" id="Layer_1" xmlns="http://www.w3.org/2000/svg" xmlns:xlink="http://www.w3.org/1999/xlink" 
	 viewBox="0 0 512 512" xml:space="preserve">
<g>
	<g>
		<path d="M468.679,178.204c1.092,0.467,2.229,0.692,3.346,0.692c3.317,0,6.467-1.946,7.85-5.188
			c1.854-4.333-0.158-9.346-4.496-11.196l-19.598-8.372l21.656-12.503c4.083-2.358,5.479-7.575,3.125-11.658
			c-2.362-4.079-7.588-5.488-11.658-3.125l-26.111,15.076l3.574-29.668c0.567-4.679-2.771-8.929-7.45-9.492
			c-4.679-0.571-8.614,2.766-9.176,7.45l-4.789,42.358c0,0.005,0,0.01,0,0.016l-48.356,27.737l8.521-72.032
			c0.567-4.679-2.85-8.929-7.529-9.492c-4.696-0.588-8.468,2.767-9.026,7.45l-9.743,84.721c0,0.006,0,0.013,0,0.019l-33.921,19.293
			l7.533-71.612c0.367-3.358-1.414-6.621-4.343-8.313c-2.929-1.683-6.143-1.496-8.876,0.504l-54.26,40.041v-30.112l64.359-48.641
			c3.771-2.825,4.285-8.175,1.456-11.946c-2.817-3.763-7.786-4.538-11.574-1.704l-54.242,40.958V55.466l30.226-23.041
			c3.771-2.825,4.285-8.175,1.456-11.946c-2.821-3.763-7.795-4.538-11.574-1.704l-20.108,15.358v-25.6
			c0-4.712-3.821-8.533-8.533-8.533s-8.533,3.821-8.533,8.533v25.6l-20.974-15.358c-3.779-2.833-9.369-2.058-12.194,1.704
			c-2.829,3.771-1.695,9.121,2.076,11.946l31.092,23.041v64.001l-55.107-40.958c-3.775-2.833-9.365-2.058-12.194,1.704
			c-2.829,3.771-1.695,9.121,2.076,11.946l65.225,48.641v30.112l-55.187-40.041c-2.729-1.996-6.631-2.187-9.556-0.504
			c-2.929,1.692-4.706,4.954-4.341,8.313l7.216,66.918l-26.117-15.06l-9.652-80.012c-0.564-4.683-4.821-7.996-9.5-7.45
			c-4.679,0.562-8.021,4.812-7.453,9.492l8.103,67.304L126.034,171l-39.913-21.879l-4.688-38.9c-0.558-4.679-4.838-7.971-9.492-7.45
			c-4.679,0.562-8.017,4.812-7.45,9.492l3.225,26.77l-20.292-11.124c-4.138-2.271-9.317-0.758-11.583,3.383
			c-2.267,4.129-0.75,9.317,3.383,11.583l18.493,10.138l-22.238,9.499c-4.338,1.85-6.35,6.863-4.496,11.196
			c1.383,3.242,4.533,5.188,7.85,5.188c1.117,0,2.254-0.225,3.346-0.692l34.563-14.761l40.921,22.432l15.695,9.061l-63.216,27.005
			c-4.333,1.85-6.346,6.862-4.492,11.2c1.383,3.238,4.533,5.183,7.85,5.183c1.117,0,2.254-0.225,3.35-0.692l74.98-32.03
			l26.072,15.053l-62.448,27.535c-3.096,1.363-5.092,4.425-5.092,7.808c0,3.383,1.996,6.446,5.092,7.808l61.543,27.135
			l-26.084,15.06L76.85,274.367c-4.346-1.854-9.35,0.158-11.2,4.492c-1.854,4.338,0.159,9.35,4.492,11.2l62.296,26.612
			L77.01,348.672l-34.831-14.876c-4.342-1.85-9.35,0.167-11.196,4.496c-1.854,4.333,0.159,9.346,4.496,11.196l23.059,9.85
			l-21.534,12.433c-4.083,2.358-5.479,7.575-3.125,11.658c1.583,2.738,4.45,4.267,7.4,4.267c1.446,0,2.917-0.367,4.258-1.142
			l22.078-12.747l-3.124,25.93c-0.567,4.679,2.771,8.929,7.45,9.492c0.346,0.042,0.692,0.063,1.033,0.063
			c4.254,0,7.938-3.179,8.458-7.513l4.655-38.639l55.427-32.001l-8.224,68.294c-0.567,4.679,2.771,8.929,7.45,9.492
			c0.346,0.042,0.692,0.063,1.033,0.063c4.254,0,7.938-3.179,8.458-7.512l9.756-81.001l26.073-15.054l-7.383,67.901
			c-0.367,3.358,1.287,6.621,4.216,8.313c2.917,1.679,7.066,1.492,9.803-0.504l55.187-40.041v38.646l-65.349,48.641
			c-3.771,2.825-4.781,8.175-1.952,11.946c2.829,3.771,8.543,4.546,12.318,1.704l54.983-40.958v55.468l-31.216,23.041
			c-3.771,2.825-4.781,8.175-1.952,11.946c2.825,3.763,8.539,4.546,12.318,1.704l20.85-15.358v25.6c0,4.713,3.821,8.533,8.533,8.533
			s8.533-3.821,8.533-8.533v-25.6l19.984,15.358c1.537,1.154,3.085,1.708,4.864,1.708c2.596,0,5.035-1.179,6.71-3.412
			c2.829-3.771,2.5-9.121-1.271-11.946l-30.288-23.041v-55.468l54.118,40.958c1.537,1.154,3.085,1.708,4.864,1.708
			c2.596,0,5.036-1.179,6.71-3.412c2.829-3.771,2.5-9.121-1.271-11.946l-64.421-48.641v-38.646l54.197,40.041
			c1.496,1.092,3.019,1.646,4.794,1.646c1.471,0,2.818-0.379,4.143-1.142c2.93-1.692,4.522-4.954,4.155-8.313l-7.388-67.655
			l30.524,16.743l2.801,1.622l9.843,81.712c0.521,4.333,4.202,7.512,8.456,7.512c0.342,0,0.686-0.021,1.032-0.063
			c4.679-0.562,8.016-4.812,7.449-9.492l-8.313-69.004l48.038,27.737l4.742,39.347c0.521,4.333,4.204,7.513,8.458,7.513
			c0.342,0,0.688-0.021,1.033-0.063c4.679-0.563,8.017-4.812,7.45-9.492l-3.209-26.64l22.318,12.885
			c1.346,0.775,2.813,1.142,4.258,1.142c2.95,0,5.817-1.529,7.4-4.267c2.354-4.083,0.958-9.3-3.125-11.658l-21.032-12.143
			l22.403-9.57c4.338-1.85,6.35-6.863,4.496-11.196c-1.85-4.329-6.858-6.346-11.196-4.496l-34.176,14.597l-48.04-27.735
			l61.641-26.332c4.337-1.85,6.35-6.862,4.496-11.196c-1.85-4.333-6.862-6.35-11.196-4.496l-73.412,31.358l-4.258-2.458
			l-30.086-16.495l61.757-27.23c3.096-1.363,5.092-4.425,5.092-7.808c0-3.383-1.996-6.446-5.092-7.808l-58.128-25.63l33.522-19.354
			l70.606,30.159c1.092,0.467,2.229,0.692,3.346,0.692c3.312,0,6.467-1.946,7.85-5.188c1.854-4.333-0.158-9.346-4.496-11.196
			l-58.834-25.133l48.04-27.735L468.679,178.204z M264.952,221.867v-29.802l48.664-35.99l-7.293,64.791l-24.125,13.857
			c-4.569-5.709-10.496-9.9-17.79-11.762C264.455,222.599,264.952,222.242,264.952,221.867z M247.886,192.065v29.802
			c0,0.375-0.431,0.732-0.384,1.095c-5.998,1.531-11.626,4.619-15.885,8.856l-26.972-15.645l-6.412-60.098L247.886,192.065z
			 M140.046,256l56.172-24.768l26.449,15.271c-0.876,3.019-1.371,6.199-1.371,9.497c0,3.01,0.43,5.914,1.165,8.695l-27.148,15.674
			L140.046,256z M247.886,319.936l-49.653,35.99l6.395-61.08l26.804-15.261c4.32,4.507,10.054,7.816,16.454,9.427V319.936z
			 M255.539,273.062c-0.038-0.001-0.072-0.011-0.109-0.011c-0.037,0-0.073,0.01-0.11,0.011c-9.362-0.06-16.956-7.686-16.956-17.062
			c0-9.412,7.654-17.067,17.067-17.067c9.412,0,17.067,7.654,17.067,17.067C272.496,265.375,264.9,273.001,255.539,273.062z
			 M264.952,319.936v-30.925c4.267-1.491,10.435-4.43,14.599-8.433l27.51,15.081l6.554,60.267L264.952,319.936z M370.813,256
			l-56.022,24.701l-26.741-14.66c0.98-3.176,1.513-6.547,1.513-10.041c0-1.93-0.2-3.81-0.508-5.653
			c0.222-0.104,0.446-0.201,0.662-0.326l29.243-16.884L370.813,256z"/>
	</g>
</g>
</svg>